<?xml version="1.0" standalone="no"?>
<!DOCTYPE svg PUBLIC "-//W3C//DTD SVG 20010904//EN"
 "http://www.w3.org/TR/2001/REC-SVG-20010904/DTD/svg10.dtd">
<svg version="1.0" xmlns="http://www.w3.org/2000/svg"
 width="1200.000000pt" height="1200.000000pt" viewBox="0 0 1200.000000 1200.000000"
 preserveAspectRatio="xMidYMid meet">
<metadata>
Created by potrace 1.14, written by Peter Selinger 2001-2017
</metadata>
<g transform="translate(0.000000,1200.000000) scale(0.100000,-0.100000)"
fill="#000000" stroke="none">
<path d="M5689 11996 c-2 -2 -53 -6 -114 -10 -117 -7 -141 -9 -330 -32 -1299
-159 -2554 -773 -3485 -1704 -157 -158 -336 -357 -432 -480 -15 -19 -53 -69
-85 -110 -138 -176 -301 -417 -412 -610 -40 -69 -77 -132 -82 -140 -10 -16
-214 -425 -237 -476 -40 -87 -160 -396 -198 -509 -162 -487 -267 -1004 -301
-1490 -18 -251 -9 -836 17 -1055 5 -47 12 -107 15 -135 6 -46 27 -189 41 -275
12 -73 66 -329 90 -425 103 -413 261 -839 449 -1215 65 -130 95 -187 190 -355
47 -84 169 -276 228 -360 31 -44 73 -104 93 -133 130 -191 401 -509 625 -732
728 -726 1590 -1230 2614 -1529 334 -97 817 -182 1190 -208 209 -15 815 -9
990 10 224 24 235 26 380 48 958 147 1913 554 2695 1148 393 299 751 647 1049
1021 50 63 96 121 102 128 69 84 265 375 371 552 85 142 79 131 173 311 61
119 91 180 180 374 75 163 197 505 264 735 89 311 160 669 197 995 3 33 8 74
10 90 22 192 26 879 6 1090 -24 240 -59 480 -103 695 -156 758 -448 1460 -878
2110 -83 125 -233 334 -250 350 -4 3 -19 23 -35 45 -89 121 -295 352 -471 529
-99 99 -140 138 -275 260 -56 50 -211 179 -255 211 -22 17 -42 32 -45 35 -3 4
-39 31 -80 61 -330 243 -565 386 -920 564 -583 292 -1223 487 -1877 574 -147
20 -201 25 -383 40 -97 8 -713 14 -721 7z"/>
</g>
</svg>
